<svg xmlns="http://www.w3.org/2000/svg" width="960" height="640" viewBox="0 0 960 640" role="img" aria-labelledby="title desc">
  <title id="title">Training hero illustration</title>
  <desc id="desc">Stylized illustration of video training cards and a large play button.</desc>
  <defs>
    <linearGradient id="bg" x1="0" x2="1" y1="0" y2="1">
      <stop offset="0" stop-color="#0f172a"/>
      <stop offset="1" stop-color="#020617"/>
    </linearGradient>
    <linearGradient id="card" x1="0" x2="1" y1="0" y2="1">
      <stop offset="0" stop-color="#e5f3ff"/>
      <stop offset="1" stop-color="#c8e0ff"/>
    </linearGradient>
  </defs>
  <rect width="960" height="640" fill="url(#bg)"/>
  <circle cx="760" cy="120" r="120" fill="#0ea5e9" opacity="0.18"/>
  <circle cx="220" cy="520" r="140" fill="#22c55e" opacity="0.12"/>
  <rect x="180" y="120" width="600" height="360" rx="32" fill="#020617" stroke="#1f2937" stroke-width="2"/>
  <rect x="210" y="150" width="260" height="150" rx="18" fill="url(#card)"/>
  <rect x="210" y="330" width="260" height="90" rx="16" fill="#020617" stroke="#1f2937" stroke-width="1.5"/>
  <rect x="490" y="150" width="230" height="90" rx="16" fill="#020617" stroke="#1f2937" stroke-width="1.5"/>
  <rect x="490" y="260" width="230" height="90" rx="16" fill="#020617" stroke="#1f2937" stroke-width="1.5"/>
  <rect x="490" y="370" width="230" height="90" rx="16" fill="#020617" stroke="#1f2937" stroke-width="1.5"/>
  <circle cx="340" cy="225" r="40" fill="#0f172a" stroke="#0ea5e9" stroke-width="4"/>
  <polygon points="330,205 360,225 330,245" fill="#e5f3ff"/>
  <rect x="230" y="340" width="160" height="12" rx="6" fill="#1f2937"/>
  <rect x="230" y="362" width="120" height="10" rx="5" fill="#111827"/>
  <rect x="510" y="170" width="140" height="10" rx="5" fill="#1f2937"/>
  <rect x="510" y="192" width="80" height="10" rx="5" fill="#111827"/>
  <rect x="510" y="280" width="140" height="10" rx="5" fill="#1f2937"/>
  <rect x="510" y="302" width="100" height="10" rx="5" fill="#111827"/>
  <rect x="510" y="390" width="140" height="10" rx="5" fill="#1f2937"/>
  <rect x="510" y="412" width="90" height="10" rx="5" fill="#111827"/>
</svg>
